<?xml version="1.0" standalone="no"?>
<!DOCTYPE svg PUBLIC "-//W3C//DTD SVG 20010904//EN"
 "http://www.w3.org/TR/2001/REC-SVG-20010904/DTD/svg10.dtd">
<svg version="1.0" xmlns="http://www.w3.org/2000/svg"
 width="108.000000pt" height="108.000000pt" viewBox="0 0 108.000000 108.000000"
 preserveAspectRatio="xMidYMid meet">
<metadata>
Created by potrace 1.14, written by Peter Selinger 2001-2017
</metadata>
<g transform="translate(0.000000,108.000000) scale(0.100000,-0.100000)"
fill="#000000" stroke="none">
<path d="M495 953 c-93 -19 -166 -67 -199 -130 -17 -34 -30 -112 -19 -114 23
-5 130 -6 145 -3 9 3 19 17 23 32 8 33 38 63 65 65 11 1 20 4 20 8 0 9 59 -4
87 -19 25 -14 36 -37 36 -75 0 -45 -19 -69 -91 -118 -82 -56 -108 -98 -107
-171 l0 -53 78 -5 c42 -3 77 -3 78 0 3 20 8 48 12 63 5 25 76 89 89 81 6 -4 8
-2 5 3 -4 6 1 14 11 18 9 3 17 5 18 3 0 -3 34 33 64 70 6 6 7 12 3 12 -4 0 -3
4 4 8 13 8 26 63 24 101 -7 130 -110 217 -267 225 -33 1 -68 1 -79 -1z"/>
<path d="M472 256 c-58 -49 -32 -148 43 -162 59 -11 111 20 118 72 13 92 -90
149 -161 90z"/>
</g>
</svg>
